<?xml version="1.0" encoding="UTF-8" standalone="no"?>
<!-- Created with Inkscape (http://www.inkscape.org/) -->

<svg
   version="1.1"
   id="svg2"
   width="512"
   height="512"
   viewBox="0 0 512 512"
   sodipodi:docname="android-chrome-512x512.svg"
   inkscape:version="1.2 (dc2aedaf03, 2022-05-15)"
   xmlns:inkscape="http://www.inkscape.org/namespaces/inkscape"
   xmlns:sodipodi="http://sodipodi.sourceforge.net/DTD/sodipodi-0.dtd"
   xmlns="http://www.w3.org/2000/svg"
   xmlns:svg="http://www.w3.org/2000/svg">
  <defs
     id="defs6" />
  <sodipodi:namedview
     id="namedview4"
     pagecolor="#ffffff"
     bordercolor="#666666"
     borderopacity="1.0"
     inkscape:showpageshadow="2"
     inkscape:pageopacity="0.0"
     inkscape:pagecheckerboard="0"
     inkscape:deskcolor="#d1d1d1"
     showgrid="false"
     inkscape:zoom="1.4142136"
     inkscape:cx="297.3384"
     inkscape:cy="280.01428"
     inkscape:window-width="1920"
     inkscape:window-height="991"
     inkscape:window-x="-9"
     inkscape:window-y="-9"
     inkscape:window-maximized="1"
     inkscape:current-layer="g8" />
  <g
     inkscape:groupmode="layer"
     inkscape:label="Image"
     id="g8">
    <path
       style="fill:#020202;stroke:none"
       d="M 243,0.424377 C 226.882,2.54071 210.901,3.39987 195,7.375 145.092,19.852 99.6994,46.7709 65.1698,85 44.241,108.171 26.6891,136.478 16.3434,166 -0.432076,213.87 -4.73205,264.341 6.65123,314 35.6928,440.691 160.65,526.596 289,509.718 412.331,493.501 506.537,388.854 511.961,265 517.084,148.019 436.57,41.417 325,9.5787 299.679,2.35294 269.349,-3.03528 243,0.424377 M 320,250 c 15.61,8.322 31.244,14.678 41.641,30 C 390.26,322.175 369.438,383.333 326,405.742 296.24,421.094 264.6,421 232,421 H 138 V 92 h 93 c 33.287,0 67.579,0.5427 97,18.464 50.147,30.546 47.24,115.702 -8,139.536 M 195,139 v 94 c 29.838,0 67.434,6.03 94,-10.468 23.443,-14.558 25.866,-57.994 2,-73.566 C 265.294,132.193 224.155,139 195,139 m 0,138 v 96 c 30.749,0 74.457,7.855 102,-8.475 27.861,-16.519 29.495,-63.374 0,-79.201 C 268.425,269.991 226.353,277 195,277 Z"
       id="path3878" />
    <path
       style="fill:#aa96da;fill-opacity:1;stroke-width:22.6274"
       d=""
       id="path3882" />
    <path
       style="fill:#aa96da;fill-opacity:1;stroke-width:0.5"
       d="M 138.25,256.50182 V 92.183635 l 61.875,0.212339 c 63.47071,0.217816 66.13385,0.295297 80.38127,2.338602 19.37358,2.778477 36.42748,8.761484 49.46075,17.352274 6.60658,4.35467 15.45639,13.17429 19.68464,19.61746 5.98052,9.11338 9.93362,18.85408 12.1167,29.8564 1.37004,6.90473 1.86537,20.0556 1.01759,27.01643 -2.2249,18.26777 -9.40853,33.92359 -21.06148,45.90081 -5.65449,5.81185 -10.75567,9.67047 -17.48041,13.22248 l -4.65667,2.45967 5.70631,2.85906 c 20.02947,10.03547 29.5933,17.33065 36.51602,27.85395 4.13787,6.29001 6.16808,10.4523 8.44624,17.31625 2.44282,7.36003 3.37766,11.98225 4.0178,19.86546 1.64734,20.28682 -4.97778,42.81423 -17.89078,60.83408 -3.77905,5.27359 -12.33318,14.18648 -17.37181,18.10038 -13.27049,10.30822 -30.9617,17.43989 -51.5737,20.79035 -15.81712,2.57105 -16.18587,2.58331 -84.81247,2.81915 l -64.375,0.22123 z M 266.5,373.9975 c 14.90693,-1.74959 27.23648,-6.17134 35.46216,-12.7178 14.48288,-11.52629 20.48559,-33.88825 14.19729,-52.8893 -5.67269,-17.14089 -19.57812,-27.09037 -43.46882,-31.10238 -13.16642,-2.21106 -27.38569,-2.5485 -54.19063,-1.28601 -8.525,0.40152 -17.35625,0.73407 -19.625,0.73901 l -4.125,0.009 V 325 373.25 h 3.61517 c 1.98834,0 10.25709,0.33742 18.375,0.74983 8.1179,0.41241 16.44733,0.83475 18.50983,0.93853 7.05735,0.35512 24.74533,-0.17742 31.25,-0.94086 z m -8.75,-140.9679 c 16.31339,-2.2604 30.01436,-7.8157 37.33803,-15.13937 5.73479,-5.7348 9.82439,-13.77607 11.76856,-23.14023 0.81605,-3.9305 0.94652,-6.08708 0.75625,-12.5 -0.26736,-9.01147 -1.4632,-13.95223 -5.02077,-20.74397 -2.46484,-4.70561 -8.47661,-11.05894 -12.94103,-13.67628 -14.20164,-8.32594 -33.46043,-11.37439 -63.93221,-10.11976 -7.54536,0.31067 -17.60008,0.7072 -22.34383,0.88118 l -8.625,0.31631 v 47.10835 47.10834 l 13.375,0.5082 c 18.44351,0.70077 42.30944,0.41088 49.625,-0.60277 z"
       id="path3886" />
  </g>
</svg>
