<?xml version="1.0" encoding="utf-8"?>
<svg version="1.1" id="svg2" width="153.51106" height="34.812481" viewBox="0 0 153.51106 34.812481" xmlns="http://www.w3.org/2000/svg">
  <g id="g8" transform="translate(-3.6371882,-13.914845)">
    <path style="fill:#ab97da;stroke:none;stroke-width:0.32" d="M 22.4,14.228384 C 12.57008,15.965312 6.953856,22.43168 4.529376,31.68 3.42848,35.87936 2.7670944,40.40224 6.135808,43.78432 c 2.465888,2.47584 6.21024,3.66464 9.544192,4.4 2.431264,0.536 5.211456,0.74336 7.68,0.3072 C 29.673888,47.376 38.21568,43.0336 40.1792,36.48 42.06368,30.191488 39.3696,26.4016 36.01984,21.44 35.01504,19.951488 34.91232,18.09184 33.74976,16.653824 31.331968,13.66336 25.892672,13.611232 22.4,14.228384 M 25.6,14.4 v 0.32 l -9.92,2.56 c 2.424192,-2.164384 6.762528,-2.853856 9.92,-2.88 m 8.96,6.72 c 1.592,1.559104 0.96,4.625472 0.96,6.72 h 0.32 V 22.4 c 6.13952,3.287616 5.48512,13.23296 1.75424,17.91872 C 32.05472,47.27648 21.905696,49.42112 13.76,47.24032 10.434272,46.34976 6.32848,44.66656 4.87184,41.28 3.827008,38.85088 4.16032,36.1296 4.48,33.6 H 4.8 c 0.745888,2.35808 0.998944,4.63456 2.492352,6.72 C 12.07008,46.99168 20.898688,47.68608 27.84,44.8 V 44.48 C 22.172256,46.83648 15.837952,46.82848 10.56,43.1824 5.993216,40.02784 3.1439904,31.599872 7.04,26.88 8.333536,31.254496 8.321248,35.40832 12.48,38.4 9.708704,35.5024 5.264704,28.552992 8.64,24.64 V 24.32 C 7.71744,23.320832 9.155008,21.908608 9.933824,21.149888 12.065376,19.073312 15.066624,17.940096 17.92,17.28 v 0.32 l -4.16,2.24 v 0.32 c 2.082784,-0.972416 4.126944,-2.58368 6.4,-3.075072 4.852832,-1.049056 10.19136,1.75056 14.4,3.715072 -3.164096,-2.600064 -8.084064,-4.075872 -12.16,-4.16 2.001632,-2.664896 7.816448,-2.294592 10.21024,-0.435808 1.32352,1.027776 2.864,3.308576 1.94976,4.915808 m 87.68,6.08 c -2.39456,-0.995584 -4.3824,-2.023136 -7.04,-1.3032 -8.21504,2.225472 -8.65984,19.43408 0.96,19.43408 2.51552,0 4.33696,-1.5968 6.4,-2.77088 0.18336,2.42496 1.73792,2.5584 3.84,2.56 V 17.28 c -1.0064,0 -2.80864,-0.335072 -3.64704,0.328896 C 121.23392,18.812192 122.24,25.330688 122.24,27.2 m 9.28,-9.92 v 27.84 h 4.16 V 17.28 h -4.16 m -87.68,0.64 v 27.2 c 5.14496,0 11.75264,1.10432 16.31872,-1.74976 C 65.34944,40.12544 64.37184,32.96256 58.56,31.36 V 30.72 C 63.3472,28.904736 64.49248,22.386048 59.83872,19.521728 55.56448,16.890912 48.62816,17.92 43.84,17.92 m -35.2,6.4 5.12,-3.84 c -2.004512,-0.172448 -4.067392,2.346688 -5.12,3.84 m 40,5.44 v -8 c 2.37632,0 5.9072,-0.582976 7.96512,0.876288 2.31264,1.639904 1.50944,5.679104 -0.92992,6.730624 C 53.64896,30.240288 50.80544,29.76 48.64,29.76 M 7.36,24.96 7.04,26.24 H 6.72 l 0.64,-1.28 m 85.76,3.2 c -0.78272,-2.185344 -2.01984,-2.238592 -4.16,-2.24 v 19.2 h 4.48 v -7.04 c 0,-1.88832 -0.64896,-5.27712 0.32896,-6.943712 1.38336,-2.35792 5.54464,-2.792 6.76448,-0.08246 1.74432,3.875456 -1.41856,9.553536 0.504,13.324416 0.5408,1.0608 3.52256,1.12672 4.2336,0.2288 1.00864,-1.27328 0.32896,-4.96 0.32896,-6.52704 0,-2.90304 0.34912,-6.255232 -0.9344,-8.96 -2.28576,-4.817152 -8.17568,-3.822848 -11.5456,-0.96 m 54.72,-2.421728 c -7.9792,1.050784 -11.06496,11.398368 -5.3808,17.082528 2.77376,2.77344 7.27712,3.072 10.8208,1.80352 1.36672,-0.48896 4.29152,-2.256 2.19104,-3.78624 -1.37216,-0.99968 -3.0848,0.448 -4.43104,0.82944 -2.90496,0.82336 -5.94528,-0.93024 -6.63072,-3.90592 -0.44896,-1.95008 1.37472,-1.91872 2.79072,-1.9216 1.856,-0.0038 8.34336,1.00224 9.54272,-0.51296 0.78976,-0.99776 0.2384,-2.89152 -0.0835,-3.96704 -1.1504,-3.844736 -4.82432,-6.147808 -8.8192,-5.621728 M 67.52,25.92 c 0,5.918592 -2.31968,22.07424 8.32,19.1488 1.56288,-0.42976 2.77408,-1.40032 4.16,-2.1888 0.36736,1.3904 2.41216,3.5184 3.83104,1.72704 C 84.536,43.7168 84.16,41.70496 84.16,40.64 V 30.4 c 0,-1.064992 0.376,-3.076896 -0.32896,-3.966912 C 83.0816,25.48656 80.752,25.92 79.68,25.92 c 0,3.795392 1.1776,9.89184 -0.19296,13.4272 -0.91104,2.34944 -4.60768,3.27968 -6.40096,1.48672 C 71.83424,39.58208 72,37.78496 72,36.16 V 25.92 H 67.52 M 35.2,27.84 c -0.54496,6.84864 -3.577216,11.26912 -7.36,16.64 4.21568,-1.96608 5.87648,-7.66688 6.92,-11.84 0.37472,-1.49904 1.04352,-3.320384 0.44,-4.8 m 82.88,1.11088 c 6.20832,-0.303808 5.94464,12.444 0,12.89712 -6.27584,0.47808 -6.14944,-12.596224 0,-12.89712 M 152.96,33.28 h -8.64 c 0.51456,-5.713056 8.49664,-5.9576 8.64,0 m -104.32,8 v -8 c 2.41248,0 6.12576,-0.69472 8.30592,0.46624 2.5552,1.36064 2.41824,5.35968 0,6.76032 C 54.6144,41.85664 51.22912,41.28 48.64,41.28 M 12.48,38.4 14.4,39.68 v -0.32 z" id="path696"/>
  </g>
</svg>