<?xml version="1.0" standalone="no"?>
<!DOCTYPE svg PUBLIC "-//W3C//DTD SVG 20010904//EN"
 "http://www.w3.org/TR/2001/REC-SVG-20010904/DTD/svg10.dtd">
<svg version="1.0" xmlns="http://www.w3.org/2000/svg"
 width="512.000000pt" height="512.000000pt" viewBox="0 0 512.000000 512.000000"
 preserveAspectRatio="xMidYMid meet">

<g transform="translate(0.000000,512.000000) scale(0.100000,-0.100000)"
fill="#000000" stroke="none">
<path d="M2245 5095 c-211 -28 -326 -53 -488 -107 -767 -256 -1367 -847 -1610
-1585 -58 -176 -106 -389 -128 -568 -18 -148 -16 -465 5 -618 113 -836 636
-1559 1402 -1940 276 -137 530 -215 844 -258 153 -21 487 -16 655 10 555 85
1031 326 1431 725 310 311 512 640 644 1052 200 627 146 1310 -150 1889 -134
262 -268 444 -490 665 -312 312 -622 505 -1030 638 -364 120 -685 148 -1085
97z m421 -905 c226 -19 380 -57 539 -135 193 -95 315 -236 385 -443 75 -224
56 -465 -53 -677 -51 -99 -182 -235 -269 -280 -32 -17 -58 -32 -58 -35 0 -3
34 -23 76 -44 237 -122 343 -231 415 -426 99 -272 36 -603 -164 -855 -155
-196 -369 -308 -689 -361 -88 -15 -203 -18 -785 -21 l-683 -5 0 1646 0 1646
579 0 c318 0 636 -5 707 -10z"/>
<path d="M2038 3733 l-88 -4 0 -468 0 -468 143 -6 c395 -18 589 3 748 83 136
69 203 169 230 342 29 189 -60 373 -217 449 -131 62 -192 72 -474 74 -140 1
-294 0 -342 -2z"/>
<path d="M2038 2353 l-88 -4 0 -478 0 -479 168 -8 c399 -21 612 -7 759 48 192
71 303 236 303 449 0 237 -121 378 -385 450 -73 20 -106 23 -375 24 -162 1
-334 0 -382 -2z"/>
</g>
</svg>
