<?xml version="1.0" encoding="utf-8"?>
<svg width="512" height="512" xmlns="http://www.w3.org/2000/svg">
  <path style="fill:#030303; stroke:none;" d="M238 0.424377C175.692 8.62943 119.783 28.8191 74.0039 74.0146C53.0751 94.6764 36.3387 119.532 23.7446 146C-22.1355 242.423 -0.609901 360.022 73.2855 435.83C107.399 470.827 152.568 494.959 200 505.881C227.876 512.3 257.571 514.16 286 510.715C404.302 496.376 503.681 396.168 511.91 276C520.311 153.325 440.051 40.0915 321 7.84875C294.584 0.69455 265.367 -3.1795 238 0.424377z"/>
  <path style="stroke: none; fill: rgb(170, 150, 218);" d="M 138 92 L 138 421 C 174.993 421 212.092 421.656 249 420.039 C 278.9 418.73 307.945 418.052 334 400.921 C 389.041 364.733 389.007 272.521 321 251 L 321 249 C 376.909 231.301 373.673 142.58 332 113.209 C 308.572 96.697 281.477 94.792 254 92.911 C 215.589 90.28 176.536 92 138 92 Z"/>
  <path style="fill:#030303; stroke:none;" d="M195 139L195 233C224.996 233 260.875 240.129 288 223.38C314.537 206.994 315.051 161.376 287 146.324C259.754 131.704 224.46 139 195 139M195 277L195 373C226.369 373.647 266.126 382.259 295 365.958C324.048 349.558 327.798 301.881 297 284.904C267.393 268.583 227.185 277 195 277z"/>
</svg>